<mxfile host="Electron" modified="2023-04-03T19:06:49.498Z" agent="Mozilla/5.0 (Windows NT 10.0; Win64; x64) AppleWebKit/537.36 (KHTML, like Gecko) draw.io/21.1.2 Chrome/106.0.5249.199 Electron/21.4.3 Safari/537.36" etag="3EWoB6QzD1tjQeIzerii" version="21.1.2" type="device">
  <diagram id="R2lEEEUBdFMjLlhIrx00" name="Page-1">
    <mxGraphModel dx="2524" dy="884" grid="1" gridSize="10" guides="1" tooltips="1" connect="1" arrows="1" fold="1" page="1" pageScale="1" pageWidth="850" pageHeight="1100" math="0" shadow="0" extFonts="Permanent Marker^https://fonts.googleapis.com/css?family=Permanent+Marker">
      <root>
        <mxCell id="0" />
        <mxCell id="1" parent="0" />
        <mxCell id="wqCdJsoowJ3V9zjdZBN9-13" value="" style="edgeStyle=orthogonalEdgeStyle;rounded=0;orthogonalLoop=1;jettySize=auto;html=1;endArrow=none;endFill=0;" parent="1" source="wqCdJsoowJ3V9zjdZBN9-6" target="wqCdJsoowJ3V9zjdZBN9-12" edge="1">
          <mxGeometry relative="1" as="geometry" />
        </mxCell>
        <mxCell id="wqCdJsoowJ3V9zjdZBN9-76" value="" style="edgeStyle=orthogonalEdgeStyle;rounded=0;orthogonalLoop=1;jettySize=auto;html=1;endArrow=none;endFill=0;" parent="1" source="wqCdJsoowJ3V9zjdZBN9-6" target="wqCdJsoowJ3V9zjdZBN9-75" edge="1">
          <mxGeometry relative="1" as="geometry" />
        </mxCell>
        <mxCell id="wqCdJsoowJ3V9zjdZBN9-137" value="1" style="edgeStyle=orthogonalEdgeStyle;rounded=0;orthogonalLoop=1;jettySize=auto;html=1;endArrow=none;endFill=0;" parent="1" source="wqCdJsoowJ3V9zjdZBN9-6" target="wqCdJsoowJ3V9zjdZBN9-136" edge="1">
          <mxGeometry relative="1" as="geometry" />
        </mxCell>
        <mxCell id="wqCdJsoowJ3V9zjdZBN9-6" value="Pessoa" style="whiteSpace=wrap;html=1;align=center;" parent="1" vertex="1">
          <mxGeometry x="350" y="350" width="100" height="40" as="geometry" />
        </mxCell>
        <mxCell id="wqCdJsoowJ3V9zjdZBN9-58" value="" style="edgeStyle=orthogonalEdgeStyle;rounded=0;orthogonalLoop=1;jettySize=auto;html=1;endArrow=none;endFill=0;" parent="1" source="wqCdJsoowJ3V9zjdZBN9-7" edge="1">
          <mxGeometry relative="1" as="geometry">
            <mxPoint x="45" y="630" as="targetPoint" />
          </mxGeometry>
        </mxCell>
        <mxCell id="wqCdJsoowJ3V9zjdZBN9-60" value="" style="edgeStyle=orthogonalEdgeStyle;rounded=0;orthogonalLoop=1;jettySize=auto;html=1;endArrow=none;endFill=0;" parent="1" source="wqCdJsoowJ3V9zjdZBN9-7" target="wqCdJsoowJ3V9zjdZBN9-59" edge="1">
          <mxGeometry relative="1" as="geometry" />
        </mxCell>
        <mxCell id="wqCdJsoowJ3V9zjdZBN9-62" value="" style="edgeStyle=orthogonalEdgeStyle;rounded=0;orthogonalLoop=1;jettySize=auto;html=1;endArrow=none;endFill=0;" parent="1" source="wqCdJsoowJ3V9zjdZBN9-7" target="wqCdJsoowJ3V9zjdZBN9-61" edge="1">
          <mxGeometry relative="1" as="geometry" />
        </mxCell>
        <mxCell id="wqCdJsoowJ3V9zjdZBN9-63" value="" style="edgeStyle=orthogonalEdgeStyle;rounded=0;orthogonalLoop=1;jettySize=auto;html=1;endArrow=none;endFill=0;" parent="1" source="wqCdJsoowJ3V9zjdZBN9-7" target="wqCdJsoowJ3V9zjdZBN9-61" edge="1">
          <mxGeometry relative="1" as="geometry" />
        </mxCell>
        <mxCell id="wqCdJsoowJ3V9zjdZBN9-65" value="" style="edgeStyle=orthogonalEdgeStyle;rounded=0;orthogonalLoop=1;jettySize=auto;html=1;endArrow=none;endFill=0;" parent="1" source="wqCdJsoowJ3V9zjdZBN9-7" target="wqCdJsoowJ3V9zjdZBN9-64" edge="1">
          <mxGeometry relative="1" as="geometry" />
        </mxCell>
        <mxCell id="wqCdJsoowJ3V9zjdZBN9-7" value="Cliente_Fisico" style="whiteSpace=wrap;html=1;" parent="1" vertex="1">
          <mxGeometry x="150" y="620" width="120" height="60" as="geometry" />
        </mxCell>
        <mxCell id="wqCdJsoowJ3V9zjdZBN9-68" value="" style="edgeStyle=orthogonalEdgeStyle;rounded=0;orthogonalLoop=1;jettySize=auto;html=1;endArrow=none;endFill=0;" parent="1" source="wqCdJsoowJ3V9zjdZBN9-9" edge="1">
          <mxGeometry relative="1" as="geometry">
            <mxPoint x="680" y="620" as="targetPoint" />
          </mxGeometry>
        </mxCell>
        <mxCell id="wqCdJsoowJ3V9zjdZBN9-70" value="" style="edgeStyle=orthogonalEdgeStyle;rounded=0;orthogonalLoop=1;jettySize=auto;html=1;endArrow=none;endFill=0;" parent="1" source="wqCdJsoowJ3V9zjdZBN9-9" target="wqCdJsoowJ3V9zjdZBN9-69" edge="1">
          <mxGeometry relative="1" as="geometry" />
        </mxCell>
        <mxCell id="wqCdJsoowJ3V9zjdZBN9-72" value="" style="edgeStyle=orthogonalEdgeStyle;rounded=0;orthogonalLoop=1;jettySize=auto;html=1;endArrow=none;endFill=0;" parent="1" source="wqCdJsoowJ3V9zjdZBN9-9" target="wqCdJsoowJ3V9zjdZBN9-71" edge="1">
          <mxGeometry relative="1" as="geometry" />
        </mxCell>
        <mxCell id="wqCdJsoowJ3V9zjdZBN9-9" value="Cliente_Juridico" style="whiteSpace=wrap;html=1;" parent="1" vertex="1">
          <mxGeometry x="520" y="620" width="120" height="60" as="geometry" />
        </mxCell>
        <mxCell id="wqCdJsoowJ3V9zjdZBN9-12" value="Nome" style="ellipse;whiteSpace=wrap;html=1;" parent="1" vertex="1">
          <mxGeometry x="520" y="355" width="80" height="30" as="geometry" />
        </mxCell>
        <mxCell id="wqCdJsoowJ3V9zjdZBN9-15" value="Codigo" style="ellipse;whiteSpace=wrap;html=1;align=center;fontStyle=4;" parent="1" vertex="1">
          <mxGeometry x="515" y="325" width="90" height="30" as="geometry" />
        </mxCell>
        <mxCell id="wqCdJsoowJ3V9zjdZBN9-17" value="" style="edgeStyle=orthogonalEdgeStyle;rounded=0;orthogonalLoop=1;jettySize=auto;html=1;endArrow=none;endFill=0;" parent="1" source="wqCdJsoowJ3V9zjdZBN9-14" target="wqCdJsoowJ3V9zjdZBN9-16" edge="1">
          <mxGeometry relative="1" as="geometry" />
        </mxCell>
        <mxCell id="wqCdJsoowJ3V9zjdZBN9-19" value="" style="edgeStyle=orthogonalEdgeStyle;rounded=0;orthogonalLoop=1;jettySize=auto;html=1;endArrow=none;endFill=0;" parent="1" source="wqCdJsoowJ3V9zjdZBN9-14" target="wqCdJsoowJ3V9zjdZBN9-18" edge="1">
          <mxGeometry relative="1" as="geometry" />
        </mxCell>
        <mxCell id="wqCdJsoowJ3V9zjdZBN9-21" value="" style="edgeStyle=orthogonalEdgeStyle;rounded=0;orthogonalLoop=1;jettySize=auto;html=1;endArrow=none;endFill=0;" parent="1" source="wqCdJsoowJ3V9zjdZBN9-14" target="wqCdJsoowJ3V9zjdZBN9-20" edge="1">
          <mxGeometry relative="1" as="geometry" />
        </mxCell>
        <mxCell id="wqCdJsoowJ3V9zjdZBN9-23" value="" style="edgeStyle=orthogonalEdgeStyle;rounded=0;orthogonalLoop=1;jettySize=auto;html=1;endArrow=none;endFill=0;" parent="1" source="wqCdJsoowJ3V9zjdZBN9-14" target="wqCdJsoowJ3V9zjdZBN9-22" edge="1">
          <mxGeometry relative="1" as="geometry" />
        </mxCell>
        <mxCell id="wqCdJsoowJ3V9zjdZBN9-25" value="" style="edgeStyle=orthogonalEdgeStyle;rounded=0;orthogonalLoop=1;jettySize=auto;html=1;endArrow=none;endFill=0;" parent="1" source="wqCdJsoowJ3V9zjdZBN9-14" target="wqCdJsoowJ3V9zjdZBN9-24" edge="1">
          <mxGeometry relative="1" as="geometry" />
        </mxCell>
        <mxCell id="wqCdJsoowJ3V9zjdZBN9-27" value="" style="edgeStyle=orthogonalEdgeStyle;rounded=0;orthogonalLoop=1;jettySize=auto;html=1;endArrow=none;endFill=0;" parent="1" source="wqCdJsoowJ3V9zjdZBN9-14" target="wqCdJsoowJ3V9zjdZBN9-26" edge="1">
          <mxGeometry relative="1" as="geometry" />
        </mxCell>
        <mxCell id="wqCdJsoowJ3V9zjdZBN9-29" value="" style="edgeStyle=orthogonalEdgeStyle;rounded=0;orthogonalLoop=1;jettySize=auto;html=1;endArrow=none;endFill=0;" parent="1" source="wqCdJsoowJ3V9zjdZBN9-14" target="wqCdJsoowJ3V9zjdZBN9-28" edge="1">
          <mxGeometry relative="1" as="geometry" />
        </mxCell>
        <mxCell id="wqCdJsoowJ3V9zjdZBN9-30" style="edgeStyle=orthogonalEdgeStyle;rounded=0;orthogonalLoop=1;jettySize=auto;html=1;exitX=0.5;exitY=0;exitDx=0;exitDy=0;endArrow=none;endFill=0;" parent="1" source="wqCdJsoowJ3V9zjdZBN9-14" edge="1">
          <mxGeometry relative="1" as="geometry">
            <mxPoint x="570" y="390" as="targetPoint" />
          </mxGeometry>
        </mxCell>
        <mxCell id="wqCdJsoowJ3V9zjdZBN9-14" value="Endereco" style="ellipse;whiteSpace=wrap;html=1;" parent="1" vertex="1">
          <mxGeometry x="515" y="385" width="90" height="30" as="geometry" />
        </mxCell>
        <mxCell id="wqCdJsoowJ3V9zjdZBN9-16" value="Logradouro" style="ellipse;whiteSpace=wrap;html=1;" parent="1" vertex="1">
          <mxGeometry x="640" y="400" width="90" height="30" as="geometry" />
        </mxCell>
        <mxCell id="wqCdJsoowJ3V9zjdZBN9-18" value="Numero" style="ellipse;whiteSpace=wrap;html=1;" parent="1" vertex="1">
          <mxGeometry x="625" y="430" width="110" height="20" as="geometry" />
        </mxCell>
        <mxCell id="wqCdJsoowJ3V9zjdZBN9-20" value="CEP" style="ellipse;whiteSpace=wrap;html=1;" parent="1" vertex="1">
          <mxGeometry x="625" y="450" width="120" height="25" as="geometry" />
        </mxCell>
        <mxCell id="wqCdJsoowJ3V9zjdZBN9-22" value="Bairro" style="ellipse;whiteSpace=wrap;html=1;" parent="1" vertex="1">
          <mxGeometry x="625" y="470" width="120" height="25" as="geometry" />
        </mxCell>
        <mxCell id="wqCdJsoowJ3V9zjdZBN9-24" value="Complemento" style="ellipse;whiteSpace=wrap;html=1;" parent="1" vertex="1">
          <mxGeometry x="630" y="490" width="120" height="30" as="geometry" />
        </mxCell>
        <mxCell id="wqCdJsoowJ3V9zjdZBN9-26" value="Localidade" style="ellipse;whiteSpace=wrap;html=1;" parent="1" vertex="1">
          <mxGeometry x="630" y="510" width="120" height="25" as="geometry" />
        </mxCell>
        <mxCell id="wqCdJsoowJ3V9zjdZBN9-28" value="UF" style="ellipse;whiteSpace=wrap;html=1;" parent="1" vertex="1">
          <mxGeometry x="630" y="535" width="120" height="25" as="geometry" />
        </mxCell>
        <mxCell id="wqCdJsoowJ3V9zjdZBN9-41" value="Telefone" style="ellipse;shape=doubleEllipse;margin=3;whiteSpace=wrap;html=1;align=center;" parent="1" vertex="1">
          <mxGeometry x="225" y="360" width="100" height="40" as="geometry" />
        </mxCell>
        <mxCell id="wqCdJsoowJ3V9zjdZBN9-47" value="" style="endArrow=none;html=1;rounded=0;entryX=0;entryY=0.75;entryDx=0;entryDy=0;exitX=1;exitY=0.5;exitDx=0;exitDy=0;" parent="1" source="wqCdJsoowJ3V9zjdZBN9-41" target="wqCdJsoowJ3V9zjdZBN9-6" edge="1">
          <mxGeometry relative="1" as="geometry">
            <mxPoint x="300" y="570" as="sourcePoint" />
            <mxPoint x="460" y="570" as="targetPoint" />
          </mxGeometry>
        </mxCell>
        <mxCell id="wqCdJsoowJ3V9zjdZBN9-48" value="" style="edgeStyle=orthogonalEdgeStyle;rounded=0;orthogonalLoop=1;jettySize=auto;html=1;endArrow=none;endFill=0;startArrow=none;" parent="1" source="wqCdJsoowJ3V9zjdZBN9-55" edge="1">
          <mxGeometry relative="1" as="geometry">
            <mxPoint x="225" y="380" as="sourcePoint" />
            <mxPoint x="150" y="375" as="targetPoint" />
          </mxGeometry>
        </mxCell>
        <mxCell id="wqCdJsoowJ3V9zjdZBN9-52" value="Tipo" style="ellipse;whiteSpace=wrap;html=1;" parent="1" vertex="1">
          <mxGeometry x="95" y="365" width="110" height="40" as="geometry" />
        </mxCell>
        <mxCell id="wqCdJsoowJ3V9zjdZBN9-54" value="" style="edgeStyle=orthogonalEdgeStyle;rounded=0;orthogonalLoop=1;jettySize=auto;html=1;endArrow=none;endFill=0;" parent="1" target="wqCdJsoowJ3V9zjdZBN9-52" edge="1">
          <mxGeometry relative="1" as="geometry">
            <mxPoint x="225" y="380" as="sourcePoint" />
            <mxPoint x="150" y="375" as="targetPoint" />
          </mxGeometry>
        </mxCell>
        <mxCell id="wqCdJsoowJ3V9zjdZBN9-56" value="" style="edgeStyle=orthogonalEdgeStyle;rounded=0;orthogonalLoop=1;jettySize=auto;html=1;endArrow=none;endFill=0;startArrow=none;" parent="1" source="wqCdJsoowJ3V9zjdZBN9-52" target="wqCdJsoowJ3V9zjdZBN9-55" edge="1">
          <mxGeometry relative="1" as="geometry">
            <mxPoint x="150" y="365" as="sourcePoint" />
            <mxPoint x="150" y="375" as="targetPoint" />
          </mxGeometry>
        </mxCell>
        <mxCell id="wqCdJsoowJ3V9zjdZBN9-55" value="Numero" style="ellipse;whiteSpace=wrap;html=1;align=center;fontStyle=4;" parent="1" vertex="1">
          <mxGeometry x="95" y="325" width="100" height="40" as="geometry" />
        </mxCell>
        <mxCell id="wqCdJsoowJ3V9zjdZBN9-59" value="Data_Nascimento" style="ellipse;whiteSpace=wrap;html=1;" parent="1" vertex="1">
          <mxGeometry x="-50" y="690" width="105" height="50" as="geometry" />
        </mxCell>
        <mxCell id="wqCdJsoowJ3V9zjdZBN9-61" value="RG" style="ellipse;whiteSpace=wrap;html=1;" parent="1" vertex="1">
          <mxGeometry x="-50" y="570" width="100" height="40" as="geometry" />
        </mxCell>
        <mxCell id="wqCdJsoowJ3V9zjdZBN9-64" value="Sexo" style="ellipse;whiteSpace=wrap;html=1;" parent="1" vertex="1">
          <mxGeometry x="-45" y="650" width="90" height="40" as="geometry" />
        </mxCell>
        <mxCell id="wqCdJsoowJ3V9zjdZBN9-66" value="CPF" style="ellipse;whiteSpace=wrap;html=1;align=center;fontStyle=4;" parent="1" vertex="1">
          <mxGeometry x="-50" y="610" width="100" height="40" as="geometry" />
        </mxCell>
        <mxCell id="wqCdJsoowJ3V9zjdZBN9-69" value="IE" style="ellipse;whiteSpace=wrap;html=1;" parent="1" vertex="1">
          <mxGeometry x="680" y="640" width="70" height="30" as="geometry" />
        </mxCell>
        <mxCell id="wqCdJsoowJ3V9zjdZBN9-71" value="Nome_Responsável" style="ellipse;whiteSpace=wrap;html=1;" parent="1" vertex="1">
          <mxGeometry x="680" y="670" width="120" height="50" as="geometry" />
        </mxCell>
        <mxCell id="wqCdJsoowJ3V9zjdZBN9-74" value="CNPJ" style="ellipse;whiteSpace=wrap;html=1;align=center;fontStyle=4;" parent="1" vertex="1">
          <mxGeometry x="680" y="600" width="80" height="40" as="geometry" />
        </mxCell>
        <mxCell id="wqCdJsoowJ3V9zjdZBN9-75" value="T / D" style="shape=hexagon;perimeter=hexagonPerimeter2;whiteSpace=wrap;html=1;fixedSize=1;" parent="1" vertex="1">
          <mxGeometry x="340" y="450" width="120" height="40" as="geometry" />
        </mxCell>
        <mxCell id="wqCdJsoowJ3V9zjdZBN9-77" value="" style="edgeStyle=orthogonalEdgeStyle;rounded=0;orthogonalLoop=1;jettySize=auto;html=1;endArrow=none;endFill=0;entryX=0.5;entryY=1;entryDx=0;entryDy=0;exitX=1;exitY=0.5;exitDx=0;exitDy=0;" parent="1" source="wqCdJsoowJ3V9zjdZBN9-7" target="wqCdJsoowJ3V9zjdZBN9-75" edge="1">
          <mxGeometry relative="1" as="geometry">
            <mxPoint x="410" y="400" as="sourcePoint" />
            <mxPoint x="410" y="460" as="targetPoint" />
          </mxGeometry>
        </mxCell>
        <mxCell id="wqCdJsoowJ3V9zjdZBN9-78" value="" style="edgeStyle=orthogonalEdgeStyle;rounded=0;orthogonalLoop=1;jettySize=auto;html=1;endArrow=none;endFill=0;entryX=0;entryY=0.5;entryDx=0;entryDy=0;exitX=0.5;exitY=1;exitDx=0;exitDy=0;" parent="1" source="wqCdJsoowJ3V9zjdZBN9-75" target="wqCdJsoowJ3V9zjdZBN9-9" edge="1">
          <mxGeometry relative="1" as="geometry">
            <mxPoint x="420" y="410" as="sourcePoint" />
            <mxPoint x="420" y="470" as="targetPoint" />
          </mxGeometry>
        </mxCell>
        <mxCell id="wqCdJsoowJ3V9zjdZBN9-81" value="" style="edgeStyle=orthogonalEdgeStyle;rounded=0;orthogonalLoop=1;jettySize=auto;html=1;endArrow=none;endFill=0;" parent="1" source="wqCdJsoowJ3V9zjdZBN9-79" edge="1">
          <mxGeometry relative="1" as="geometry">
            <mxPoint x="530" y="125" as="targetPoint" />
          </mxGeometry>
        </mxCell>
        <mxCell id="wqCdJsoowJ3V9zjdZBN9-83" value="" style="edgeStyle=orthogonalEdgeStyle;rounded=0;orthogonalLoop=1;jettySize=auto;html=1;endArrow=none;endFill=0;" parent="1" source="wqCdJsoowJ3V9zjdZBN9-79" target="wqCdJsoowJ3V9zjdZBN9-82" edge="1">
          <mxGeometry relative="1" as="geometry" />
        </mxCell>
        <mxCell id="wqCdJsoowJ3V9zjdZBN9-86" value="" style="edgeStyle=orthogonalEdgeStyle;rounded=0;orthogonalLoop=1;jettySize=auto;html=1;endArrow=none;endFill=0;" parent="1" source="wqCdJsoowJ3V9zjdZBN9-79" target="wqCdJsoowJ3V9zjdZBN9-85" edge="1">
          <mxGeometry relative="1" as="geometry" />
        </mxCell>
        <mxCell id="wqCdJsoowJ3V9zjdZBN9-104" value="N&lt;br&gt;" style="edgeStyle=orthogonalEdgeStyle;rounded=0;orthogonalLoop=1;jettySize=auto;html=1;endArrow=none;endFill=0;" parent="1" source="wqCdJsoowJ3V9zjdZBN9-79" target="wqCdJsoowJ3V9zjdZBN9-103" edge="1">
          <mxGeometry x="-0.3333" y="-10" relative="1" as="geometry">
            <mxPoint as="offset" />
          </mxGeometry>
        </mxCell>
        <mxCell id="wqCdJsoowJ3V9zjdZBN9-79" value="VENDA" style="whiteSpace=wrap;html=1;align=center;" parent="1" vertex="1">
          <mxGeometry x="360" y="105" width="100" height="45" as="geometry" />
        </mxCell>
        <mxCell id="wqCdJsoowJ3V9zjdZBN9-82" value="Data_Venda" style="ellipse;whiteSpace=wrap;html=1;" parent="1" vertex="1">
          <mxGeometry x="530" y="135" width="100" height="50" as="geometry" />
        </mxCell>
        <mxCell id="wqCdJsoowJ3V9zjdZBN9-84" value="Numero" style="ellipse;whiteSpace=wrap;html=1;align=center;fontStyle=4;" parent="1" vertex="1">
          <mxGeometry x="530" y="95" width="100" height="40" as="geometry" />
        </mxCell>
        <mxCell id="wqCdJsoowJ3V9zjdZBN9-85" value="Cond_Pagamento" style="ellipse;whiteSpace=wrap;html=1;" parent="1" vertex="1">
          <mxGeometry x="530" y="185" width="110" height="30" as="geometry" />
        </mxCell>
        <mxCell id="wqCdJsoowJ3V9zjdZBN9-102" value="" style="edgeStyle=orthogonalEdgeStyle;rounded=0;orthogonalLoop=1;jettySize=auto;html=1;endArrow=none;endFill=0;exitX=1;exitY=1;exitDx=0;exitDy=0;" parent="1" source="wqCdJsoowJ3V9zjdZBN9-103" target="wqCdJsoowJ3V9zjdZBN9-101" edge="1">
          <mxGeometry relative="1" as="geometry" />
        </mxCell>
        <mxCell id="wqCdJsoowJ3V9zjdZBN9-97" value="" style="edgeStyle=orthogonalEdgeStyle;rounded=0;orthogonalLoop=1;jettySize=auto;html=1;endArrow=none;endFill=0;" parent="1" source="wqCdJsoowJ3V9zjdZBN9-95" target="wqCdJsoowJ3V9zjdZBN9-98" edge="1">
          <mxGeometry relative="1" as="geometry">
            <mxPoint x="280" y="125" as="targetPoint" />
          </mxGeometry>
        </mxCell>
        <mxCell id="wqCdJsoowJ3V9zjdZBN9-100" value="" style="edgeStyle=orthogonalEdgeStyle;rounded=0;orthogonalLoop=1;jettySize=auto;html=1;endArrow=none;endFill=0;" parent="1" source="wqCdJsoowJ3V9zjdZBN9-95" target="wqCdJsoowJ3V9zjdZBN9-99" edge="1">
          <mxGeometry relative="1" as="geometry" />
        </mxCell>
        <mxCell id="wqCdJsoowJ3V9zjdZBN9-108" value="" style="edgeStyle=orthogonalEdgeStyle;rounded=0;orthogonalLoop=1;jettySize=auto;html=1;endArrow=none;endFill=0;" parent="1" source="wqCdJsoowJ3V9zjdZBN9-95" target="wqCdJsoowJ3V9zjdZBN9-107" edge="1">
          <mxGeometry relative="1" as="geometry" />
        </mxCell>
        <mxCell id="wqCdJsoowJ3V9zjdZBN9-114" value="" style="edgeStyle=orthogonalEdgeStyle;rounded=0;orthogonalLoop=1;jettySize=auto;html=1;endArrow=none;endFill=0;" parent="1" source="wqCdJsoowJ3V9zjdZBN9-95" target="wqCdJsoowJ3V9zjdZBN9-113" edge="1">
          <mxGeometry relative="1" as="geometry">
            <Array as="points">
              <mxPoint x="40" y="225" />
              <mxPoint x="-65" y="225" />
            </Array>
          </mxGeometry>
        </mxCell>
        <mxCell id="wqCdJsoowJ3V9zjdZBN9-95" value="Produto" style="whiteSpace=wrap;html=1;align=center;" parent="1" vertex="1">
          <mxGeometry x="-10" y="115" width="100" height="40" as="geometry" />
        </mxCell>
        <mxCell id="wqCdJsoowJ3V9zjdZBN9-98" value="Codigo" style="ellipse;whiteSpace=wrap;html=1;align=center;fontStyle=4;" parent="1" vertex="1">
          <mxGeometry x="-160" y="75" width="100" height="40" as="geometry" />
        </mxCell>
        <mxCell id="wqCdJsoowJ3V9zjdZBN9-99" value="Descrição" style="ellipse;whiteSpace=wrap;html=1;" parent="1" vertex="1">
          <mxGeometry x="-170" y="135" width="120" height="30" as="geometry" />
        </mxCell>
        <mxCell id="wqCdJsoowJ3V9zjdZBN9-101" value="Quantidade" style="ellipse;whiteSpace=wrap;html=1;" parent="1" vertex="1">
          <mxGeometry x="190" y="185" width="100" height="40" as="geometry" />
        </mxCell>
        <mxCell id="wqCdJsoowJ3V9zjdZBN9-105" value="" style="edgeStyle=orthogonalEdgeStyle;rounded=0;orthogonalLoop=1;jettySize=auto;html=1;endArrow=none;endFill=0;" parent="1" source="wqCdJsoowJ3V9zjdZBN9-103" target="wqCdJsoowJ3V9zjdZBN9-95" edge="1">
          <mxGeometry relative="1" as="geometry" />
        </mxCell>
        <mxCell id="wqCdJsoowJ3V9zjdZBN9-124" value="" style="edgeStyle=orthogonalEdgeStyle;rounded=0;orthogonalLoop=1;jettySize=auto;html=1;endArrow=none;endFill=0;" parent="1" source="wqCdJsoowJ3V9zjdZBN9-103" target="wqCdJsoowJ3V9zjdZBN9-123" edge="1">
          <mxGeometry relative="1" as="geometry" />
        </mxCell>
        <mxCell id="wqCdJsoowJ3V9zjdZBN9-103" value="TEM" style="rhombus;whiteSpace=wrap;html=1;" parent="1" vertex="1">
          <mxGeometry x="190" y="85" width="80" height="80" as="geometry" />
        </mxCell>
        <mxCell id="wqCdJsoowJ3V9zjdZBN9-106" value="M" style="text;html=1;align=center;verticalAlign=middle;resizable=0;points=[];autosize=1;strokeColor=none;fillColor=none;" parent="1" vertex="1">
          <mxGeometry x="105" y="110" width="30" height="30" as="geometry" />
        </mxCell>
        <mxCell id="wqCdJsoowJ3V9zjdZBN9-110" value="" style="edgeStyle=orthogonalEdgeStyle;rounded=0;orthogonalLoop=1;jettySize=auto;html=1;endArrow=none;endFill=0;" parent="1" source="wqCdJsoowJ3V9zjdZBN9-107" target="wqCdJsoowJ3V9zjdZBN9-109" edge="1">
          <mxGeometry relative="1" as="geometry" />
        </mxCell>
        <mxCell id="wqCdJsoowJ3V9zjdZBN9-112" value="" style="edgeStyle=orthogonalEdgeStyle;rounded=0;orthogonalLoop=1;jettySize=auto;html=1;endArrow=none;endFill=0;" parent="1" source="wqCdJsoowJ3V9zjdZBN9-107" target="wqCdJsoowJ3V9zjdZBN9-111" edge="1">
          <mxGeometry relative="1" as="geometry" />
        </mxCell>
        <mxCell id="wqCdJsoowJ3V9zjdZBN9-107" value="Quantidade" style="ellipse;whiteSpace=wrap;html=1;" parent="1" vertex="1">
          <mxGeometry x="-160" y="165" width="110" height="40" as="geometry" />
        </mxCell>
        <mxCell id="wqCdJsoowJ3V9zjdZBN9-109" value="Minima" style="ellipse;whiteSpace=wrap;html=1;" parent="1" vertex="1">
          <mxGeometry x="-310" y="165" width="120" height="40" as="geometry" />
        </mxCell>
        <mxCell id="wqCdJsoowJ3V9zjdZBN9-111" value="Estoque" style="ellipse;whiteSpace=wrap;html=1;" parent="1" vertex="1">
          <mxGeometry x="-300" y="205" width="110" height="40" as="geometry" />
        </mxCell>
        <mxCell id="wqCdJsoowJ3V9zjdZBN9-113" value="Tipo" style="ellipse;whiteSpace=wrap;html=1;" parent="1" vertex="1">
          <mxGeometry x="-160" y="210" width="110" height="30" as="geometry" />
        </mxCell>
        <mxCell id="wqCdJsoowJ3V9zjdZBN9-119" value="" style="edgeStyle=orthogonalEdgeStyle;rounded=0;orthogonalLoop=1;jettySize=auto;html=1;endArrow=none;endFill=0;" parent="1" source="wqCdJsoowJ3V9zjdZBN9-117" target="wqCdJsoowJ3V9zjdZBN9-95" edge="1">
          <mxGeometry relative="1" as="geometry" />
        </mxCell>
        <mxCell id="wqCdJsoowJ3V9zjdZBN9-117" value="Preco_Custo" style="ellipse;whiteSpace=wrap;html=1;" parent="1" vertex="1">
          <mxGeometry x="-160" y="245" width="110" height="30" as="geometry" />
        </mxCell>
        <mxCell id="wqCdJsoowJ3V9zjdZBN9-118" value="Preco_Venda" style="ellipse;whiteSpace=wrap;html=1;" parent="1" vertex="1">
          <mxGeometry x="-150" y="275" width="110" height="30" as="geometry" />
        </mxCell>
        <mxCell id="wqCdJsoowJ3V9zjdZBN9-120" value="" style="edgeStyle=orthogonalEdgeStyle;rounded=0;orthogonalLoop=1;jettySize=auto;html=1;endArrow=none;endFill=0;entryX=0.5;entryY=1;entryDx=0;entryDy=0;" parent="1" target="wqCdJsoowJ3V9zjdZBN9-95" edge="1">
          <mxGeometry relative="1" as="geometry">
            <mxPoint x="-40" y="295" as="sourcePoint" />
            <mxPoint x="50" y="165" as="targetPoint" />
            <Array as="points">
              <mxPoint x="40" y="295" />
            </Array>
          </mxGeometry>
        </mxCell>
        <mxCell id="wqCdJsoowJ3V9zjdZBN9-123" value="Preco_Venda" style="ellipse;whiteSpace=wrap;html=1;" parent="1" vertex="1">
          <mxGeometry x="170" y="45" width="110" height="30" as="geometry" />
        </mxCell>
        <mxCell id="wqCdJsoowJ3V9zjdZBN9-131" value="" style="edgeStyle=orthogonalEdgeStyle;rounded=0;orthogonalLoop=1;jettySize=auto;html=1;endArrow=none;endFill=0;entryX=0;entryY=1;entryDx=0;entryDy=0;" parent="1" source="wqCdJsoowJ3V9zjdZBN9-129" target="wqCdJsoowJ3V9zjdZBN9-103" edge="1">
          <mxGeometry relative="1" as="geometry" />
        </mxCell>
        <mxCell id="wqCdJsoowJ3V9zjdZBN9-129" value="Valor_Total_Item" style="ellipse;whiteSpace=wrap;html=1;align=center;dashed=1;" parent="1" vertex="1">
          <mxGeometry x="70" y="155" width="100" height="40" as="geometry" />
        </mxCell>
        <mxCell id="wqCdJsoowJ3V9zjdZBN9-134" value="" style="edgeStyle=orthogonalEdgeStyle;rounded=0;orthogonalLoop=1;jettySize=auto;html=1;endArrow=none;endFill=0;" parent="1" source="wqCdJsoowJ3V9zjdZBN9-133" target="wqCdJsoowJ3V9zjdZBN9-79" edge="1">
          <mxGeometry relative="1" as="geometry" />
        </mxCell>
        <mxCell id="wqCdJsoowJ3V9zjdZBN9-133" value="Valor_Venda" style="ellipse;whiteSpace=wrap;html=1;align=center;dashed=1;" parent="1" vertex="1">
          <mxGeometry x="430" y="20" width="100" height="40" as="geometry" />
        </mxCell>
        <mxCell id="wqCdJsoowJ3V9zjdZBN9-138" value="M" style="edgeStyle=orthogonalEdgeStyle;rounded=0;orthogonalLoop=1;jettySize=auto;html=1;endArrow=none;endFill=0;" parent="1" source="wqCdJsoowJ3V9zjdZBN9-136" target="wqCdJsoowJ3V9zjdZBN9-79" edge="1">
          <mxGeometry relative="1" as="geometry" />
        </mxCell>
        <mxCell id="wqCdJsoowJ3V9zjdZBN9-136" value="POSSUI" style="rhombus;whiteSpace=wrap;html=1;" parent="1" vertex="1">
          <mxGeometry x="440" y="185" width="80" height="80" as="geometry" />
        </mxCell>
        <mxCell id="wqCdJsoowJ3V9zjdZBN9-141" value="1" style="edgeStyle=orthogonalEdgeStyle;rounded=0;orthogonalLoop=1;jettySize=auto;html=1;endArrow=none;endFill=0;" parent="1" source="wqCdJsoowJ3V9zjdZBN9-139" target="wqCdJsoowJ3V9zjdZBN9-140" edge="1">
          <mxGeometry relative="1" as="geometry">
            <Array as="points">
              <mxPoint x="70" y="235" />
            </Array>
          </mxGeometry>
        </mxCell>
        <mxCell id="wqCdJsoowJ3V9zjdZBN9-139" value="Funcionário" style="whiteSpace=wrap;html=1;align=center;" parent="1" vertex="1">
          <mxGeometry y="455" width="100" height="40" as="geometry" />
        </mxCell>
        <mxCell id="wqCdJsoowJ3V9zjdZBN9-142" value="M" style="edgeStyle=orthogonalEdgeStyle;rounded=0;orthogonalLoop=1;jettySize=auto;html=1;endArrow=none;endFill=0;entryX=0.167;entryY=1.052;entryDx=0;entryDy=0;entryPerimeter=0;" parent="1" source="wqCdJsoowJ3V9zjdZBN9-140" target="wqCdJsoowJ3V9zjdZBN9-79" edge="1">
          <mxGeometry relative="1" as="geometry" />
        </mxCell>
        <mxCell id="wqCdJsoowJ3V9zjdZBN9-140" value="FAZ" style="rhombus;whiteSpace=wrap;html=1;" parent="1" vertex="1">
          <mxGeometry x="350" y="195" width="80" height="80" as="geometry" />
        </mxCell>
        <mxCell id="wqCdJsoowJ3V9zjdZBN9-143" value="Telefone" style="ellipse;shape=doubleEllipse;margin=3;whiteSpace=wrap;html=1;align=center;" parent="1" vertex="1">
          <mxGeometry x="-30" y="525" width="100" height="40" as="geometry" />
        </mxCell>
        <mxCell id="wqCdJsoowJ3V9zjdZBN9-144" value="" style="endArrow=none;html=1;rounded=0;entryX=0.5;entryY=1;entryDx=0;entryDy=0;exitX=1;exitY=0.5;exitDx=0;exitDy=0;" parent="1" source="wqCdJsoowJ3V9zjdZBN9-143" target="wqCdJsoowJ3V9zjdZBN9-139" edge="1">
          <mxGeometry relative="1" as="geometry">
            <mxPoint x="5" y="715" as="sourcePoint" />
            <mxPoint x="55.00000000000023" y="525" as="targetPoint" />
          </mxGeometry>
        </mxCell>
        <mxCell id="wqCdJsoowJ3V9zjdZBN9-145" value="" style="edgeStyle=orthogonalEdgeStyle;rounded=0;orthogonalLoop=1;jettySize=auto;html=1;endArrow=none;endFill=0;startArrow=none;" parent="1" source="wqCdJsoowJ3V9zjdZBN9-149" edge="1">
          <mxGeometry relative="1" as="geometry">
            <mxPoint x="-30" y="545" as="sourcePoint" />
            <mxPoint x="-105" y="540" as="targetPoint" />
          </mxGeometry>
        </mxCell>
        <mxCell id="wqCdJsoowJ3V9zjdZBN9-146" value="Tipo" style="ellipse;whiteSpace=wrap;html=1;" parent="1" vertex="1">
          <mxGeometry x="-160" y="530" width="110" height="40" as="geometry" />
        </mxCell>
        <mxCell id="wqCdJsoowJ3V9zjdZBN9-147" value="" style="edgeStyle=orthogonalEdgeStyle;rounded=0;orthogonalLoop=1;jettySize=auto;html=1;endArrow=none;endFill=0;" parent="1" target="wqCdJsoowJ3V9zjdZBN9-146" edge="1">
          <mxGeometry relative="1" as="geometry">
            <mxPoint x="-30" y="545" as="sourcePoint" />
            <mxPoint x="-105" y="540" as="targetPoint" />
          </mxGeometry>
        </mxCell>
        <mxCell id="wqCdJsoowJ3V9zjdZBN9-148" value="" style="edgeStyle=orthogonalEdgeStyle;rounded=0;orthogonalLoop=1;jettySize=auto;html=1;endArrow=none;endFill=0;startArrow=none;" parent="1" source="wqCdJsoowJ3V9zjdZBN9-146" target="wqCdJsoowJ3V9zjdZBN9-149" edge="1">
          <mxGeometry relative="1" as="geometry">
            <mxPoint x="-105" y="530" as="sourcePoint" />
            <mxPoint x="-105" y="540" as="targetPoint" />
          </mxGeometry>
        </mxCell>
        <mxCell id="wqCdJsoowJ3V9zjdZBN9-149" value="Numero" style="ellipse;whiteSpace=wrap;html=1;align=center;fontStyle=4;" parent="1" vertex="1">
          <mxGeometry x="-160" y="490" width="100" height="40" as="geometry" />
        </mxCell>
        <mxCell id="wqCdJsoowJ3V9zjdZBN9-150" value="" style="edgeStyle=orthogonalEdgeStyle;rounded=0;orthogonalLoop=1;jettySize=auto;html=1;endArrow=none;endFill=0;exitX=0.167;exitY=0.028;exitDx=0;exitDy=0;exitPerimeter=0;" parent="1" source="wqCdJsoowJ3V9zjdZBN9-139" target="wqCdJsoowJ3V9zjdZBN9-151" edge="1">
          <mxGeometry relative="1" as="geometry">
            <mxPoint x="-199.99999999999977" y="395" as="sourcePoint" />
          </mxGeometry>
        </mxCell>
        <mxCell id="wqCdJsoowJ3V9zjdZBN9-151" value="Nome" style="ellipse;whiteSpace=wrap;html=1;" parent="1" vertex="1">
          <mxGeometry x="-130" y="380" width="80" height="30" as="geometry" />
        </mxCell>
        <mxCell id="wqCdJsoowJ3V9zjdZBN9-152" value="Codigo" style="ellipse;whiteSpace=wrap;html=1;align=center;fontStyle=4;" parent="1" vertex="1">
          <mxGeometry x="-135" y="350" width="90" height="30" as="geometry" />
        </mxCell>
        <mxCell id="wqCdJsoowJ3V9zjdZBN9-153" value="" style="edgeStyle=orthogonalEdgeStyle;rounded=0;orthogonalLoop=1;jettySize=auto;html=1;endArrow=none;endFill=0;" parent="1" source="wqCdJsoowJ3V9zjdZBN9-161" target="wqCdJsoowJ3V9zjdZBN9-162" edge="1">
          <mxGeometry relative="1" as="geometry" />
        </mxCell>
        <mxCell id="wqCdJsoowJ3V9zjdZBN9-154" value="" style="edgeStyle=orthogonalEdgeStyle;rounded=0;orthogonalLoop=1;jettySize=auto;html=1;endArrow=none;endFill=0;" parent="1" source="wqCdJsoowJ3V9zjdZBN9-161" target="wqCdJsoowJ3V9zjdZBN9-163" edge="1">
          <mxGeometry relative="1" as="geometry" />
        </mxCell>
        <mxCell id="wqCdJsoowJ3V9zjdZBN9-155" value="" style="edgeStyle=orthogonalEdgeStyle;rounded=0;orthogonalLoop=1;jettySize=auto;html=1;endArrow=none;endFill=0;" parent="1" source="wqCdJsoowJ3V9zjdZBN9-161" target="wqCdJsoowJ3V9zjdZBN9-164" edge="1">
          <mxGeometry relative="1" as="geometry" />
        </mxCell>
        <mxCell id="wqCdJsoowJ3V9zjdZBN9-156" value="" style="edgeStyle=orthogonalEdgeStyle;rounded=0;orthogonalLoop=1;jettySize=auto;html=1;endArrow=none;endFill=0;" parent="1" source="wqCdJsoowJ3V9zjdZBN9-161" target="wqCdJsoowJ3V9zjdZBN9-165" edge="1">
          <mxGeometry relative="1" as="geometry" />
        </mxCell>
        <mxCell id="wqCdJsoowJ3V9zjdZBN9-157" value="" style="edgeStyle=orthogonalEdgeStyle;rounded=0;orthogonalLoop=1;jettySize=auto;html=1;endArrow=none;endFill=0;" parent="1" source="wqCdJsoowJ3V9zjdZBN9-161" target="wqCdJsoowJ3V9zjdZBN9-166" edge="1">
          <mxGeometry relative="1" as="geometry" />
        </mxCell>
        <mxCell id="wqCdJsoowJ3V9zjdZBN9-158" value="" style="edgeStyle=orthogonalEdgeStyle;rounded=0;orthogonalLoop=1;jettySize=auto;html=1;endArrow=none;endFill=0;" parent="1" source="wqCdJsoowJ3V9zjdZBN9-161" target="wqCdJsoowJ3V9zjdZBN9-167" edge="1">
          <mxGeometry relative="1" as="geometry" />
        </mxCell>
        <mxCell id="wqCdJsoowJ3V9zjdZBN9-159" value="" style="edgeStyle=orthogonalEdgeStyle;rounded=0;orthogonalLoop=1;jettySize=auto;html=1;endArrow=none;endFill=0;" parent="1" source="wqCdJsoowJ3V9zjdZBN9-161" target="wqCdJsoowJ3V9zjdZBN9-168" edge="1">
          <mxGeometry relative="1" as="geometry" />
        </mxCell>
        <mxCell id="wqCdJsoowJ3V9zjdZBN9-160" style="edgeStyle=orthogonalEdgeStyle;rounded=0;orthogonalLoop=1;jettySize=auto;html=1;exitX=0.5;exitY=0;exitDx=0;exitDy=0;endArrow=none;endFill=0;" parent="1" source="wqCdJsoowJ3V9zjdZBN9-161" edge="1">
          <mxGeometry relative="1" as="geometry">
            <mxPoint x="-80" y="414.9999999999999" as="targetPoint" />
          </mxGeometry>
        </mxCell>
        <mxCell id="wqCdJsoowJ3V9zjdZBN9-161" value="Endereco" style="ellipse;whiteSpace=wrap;html=1;" parent="1" vertex="1">
          <mxGeometry x="-135" y="410" width="90" height="30" as="geometry" />
        </mxCell>
        <mxCell id="wqCdJsoowJ3V9zjdZBN9-162" value="Logradouro" style="ellipse;whiteSpace=wrap;html=1;" parent="1" vertex="1">
          <mxGeometry x="-280" y="425" width="90" height="30" as="geometry" />
        </mxCell>
        <mxCell id="wqCdJsoowJ3V9zjdZBN9-163" value="Numero" style="ellipse;whiteSpace=wrap;html=1;" parent="1" vertex="1">
          <mxGeometry x="-295" y="455" width="110" height="20" as="geometry" />
        </mxCell>
        <mxCell id="wqCdJsoowJ3V9zjdZBN9-164" value="CEP" style="ellipse;whiteSpace=wrap;html=1;" parent="1" vertex="1">
          <mxGeometry x="-295" y="475" width="120" height="25" as="geometry" />
        </mxCell>
        <mxCell id="wqCdJsoowJ3V9zjdZBN9-165" value="Bairro" style="ellipse;whiteSpace=wrap;html=1;" parent="1" vertex="1">
          <mxGeometry x="-295" y="495" width="120" height="25" as="geometry" />
        </mxCell>
        <mxCell id="wqCdJsoowJ3V9zjdZBN9-166" value="Complemento" style="ellipse;whiteSpace=wrap;html=1;" parent="1" vertex="1">
          <mxGeometry x="-290" y="515" width="120" height="30" as="geometry" />
        </mxCell>
        <mxCell id="wqCdJsoowJ3V9zjdZBN9-167" value="Localidade" style="ellipse;whiteSpace=wrap;html=1;" parent="1" vertex="1">
          <mxGeometry x="-290" y="535" width="120" height="25" as="geometry" />
        </mxCell>
        <mxCell id="wqCdJsoowJ3V9zjdZBN9-168" value="UF" style="ellipse;whiteSpace=wrap;html=1;" parent="1" vertex="1">
          <mxGeometry x="-290" y="560" width="120" height="25" as="geometry" />
        </mxCell>
      </root>
    </mxGraphModel>
  </diagram>
</mxfile>
